<svg xmlns="http://www.w3.org/2000/svg" width="184" height="100" viewBox="0 0 184 100">
    <path fill-rule="evenodd" d="M87.529 53.644c.466-.207.88-.384 1.288-.576.086-.04.21-.14.204-.203-.007-.097-.09-.226-.178-.271-.495-.261-.997-.51-1.504-.745-.251-.117-.413.012-.359.285.082.41.176.82.292 1.223.03.107.161.184.257.287m.905 5.648c.085.333.127.684.264.994.245.552.53 1.089.83 1.615.935 1.647 2.477 2.305 4.248 2.563.593.086.596.063.866-.458.358-.692.275-.836-.504-.877-.54-.028-.703-.229-.58-.749.3-1.262.608-2.522.914-3.782.243-.998.47-2 .742-2.99.145-.528.123-.647-.396-.81-.546-.173-1.1-.32-1.641-.504-.319-.108-.59-.077-.851.13-.28.222-.562.44-.848.654-.971.723-1.837 1.545-2.47 2.592-.3.497-.546 1.009-.574 1.622M92.669 46c-.323-.028-.357.122-.369.3-.015.226.005.465-.067.672-.102.296-.033.454.242.59 1.512.745 3.013 1.511 4.528 2.25.505.245.864.564.896 1.159.008.15.04.3.05.45.022.287.136.516.378.684.293.203.575.421.87.622.46.315.796.743.858 1.286.113.997.239 2.006.198 3.003-.078 1.88-.263 3.754-.425 5.629-.02.217-.142.446-.274.628-.181.252-.196.357.067.518.332.203.693.365 1.005.593.429.313.76.262 1.181-.062 2.165-1.67 4.034-3.552 4.945-6.226.367-1.078.402-2.13.084-3.212-.553-1.876-1.109-3.752-1.65-5.632-.185-.645-.259-1.294.136-1.909.148-.23.016-.396-.194-.495-.273-.129-.572-.209-.83-.362-.582-.344-1.134-.26-1.68.06-.102.059-.174.17-.26.258.101.086.196.18.305.254.111.075.237.131.356.196-.092.124-.16.28-.28.366-.702.507-1.464.623-2.26.253-.371-.173-.715-.164-1.095-.045-.273.085-.602.187-.85.108-.596-.188-1.164-.438-1.792-.553-.628-.114-1.22-.425-1.849-.538-.662-.118-1.275-.304-1.84-.67-.141-.09-.31-.141-.384-.175M93.91 5.126c.054.023.106.062.162.068 1.729.184 3.463.327 5.186.554 2.091.276 4.15.729 6.138 1.445 1.827.658 3.664 1.31 5.433 2.106 1.553.698 3.037 1.559 4.518 2.407 1.833 1.05 3.549 2.288 5.155 3.654 1.383 1.175 2.696 2.436 3.983 3.717 1.938 1.93 3.6 4.096 5.089 6.384 1.481 2.277 2.77 4.663 3.826 7.174 1.111 2.64 1.952 5.356 2.535 8.16.492 2.368.755 4.76.916 7.17.127 1.9-.01 3.785-.134 5.676-.186 2.83-.731 5.6-1.48 8.32-.473 1.715-1.119 3.386-1.76 5.047-1.022 2.644-2.435 5.085-3.95 7.474-1.61 2.538-3.592 4.763-5.656 6.925-2.817 2.949-6.06 5.348-9.578 7.38-2.495 1.44-5.12 2.601-7.843 3.542-2.376.82-4.814 1.378-7.286 1.806-3.112.538-6.25.728-9.4.568-1.41-.072-2.816-.273-4.216-.474-1.249-.18-2.5-.382-3.726-.68-1.56-.38-3.117-.805-4.638-1.32-2.625-.888-5.148-2.044-7.543-3.429-2.169-1.255-4.248-2.659-6.172-4.289-1.961-1.66-3.838-3.397-5.519-5.346-1.423-1.65-2.712-3.397-3.872-5.24-.541-.861-1.133-1.696-1.598-2.597-.664-1.286-1.22-2.629-1.845-3.935-1.076-2.247-1.779-4.616-2.33-7.034-.264-1.158-.52-2.32-.71-3.491-.463-2.827-.71-5.677-.544-8.539.101-1.747.352-3.485.55-5.226.27-2.375.92-4.667 1.619-6.937.838-2.723 1.991-5.325 3.384-7.814 1.527-2.728 3.28-5.302 5.346-7.645 1.03-1.166 2.147-2.256 3.248-3.356 1.712-1.712 3.632-3.177 5.634-4.521 2.798-1.878 5.736-3.514 8.921-4.65 1.656-.59 3.327-1.144 5.014-1.639 2.068-.606 4.203-.887 6.344-1.1.902-.09 1.806-.164 2.709-.248.045-.004.086-.044.13-.067h3.96zm-9.49 4.166c-1.53.324-3.054.684-4.564 1.09-2.367.635-4.59 1.644-6.78 2.731-2.835 1.408-5.417 3.2-7.853 5.203-2.68 2.203-4.968 4.778-6.992 7.594-1.69 2.353-3.148 4.838-4.278 7.51-.85 2.01-1.618 4.052-2.16 6.174-.747 2.926-1.16 5.902-1.272 8.912-.055 1.447-.028 2.907.11 4.347.19 1.977.443 3.955.812 5.906.495 2.62 1.435 5.118 2.45 7.577 1.102 2.671 2.576 5.136 4.237 7.499 1.966 2.799 4.267 5.288 6.855 7.504 2.83 2.425 5.943 4.436 9.316 6.026 2.813 1.326 5.753 2.283 8.79 2.959 2.02.45 4.069.712 6.124.859 4.055.29 8.084-.004 12.043-.947 3.178-.757 6.273-1.787 9.192-3.283 1.8-.923 3.559-1.91 5.22-3.075 2.341-1.641 4.468-3.526 6.454-5.568 1.547-1.59 2.878-3.363 4.158-5.181 1.542-2.19 2.77-4.548 3.847-6.98 1.122-2.535 1.86-5.2 2.443-7.915.587-2.735.871-5.49.88-8.68-.024-.628-.036-1.659-.114-2.684-.078-1.034-.165-2.074-.348-3.093-.252-1.403-.59-2.79-.905-4.181-.776-3.424-2.156-6.615-3.823-9.68-1.27-2.334-2.799-4.494-4.512-6.53-2.044-2.43-4.319-4.61-6.855-6.508-2.703-2.021-5.604-3.712-8.722-5.017-2.81-1.176-5.72-2.009-8.705-2.597-2.054-.404-4.13-.597-6.215-.67-2.968-.104-5.922.08-8.834.698zM81.313 74.65c.122.105.25.293.248.44-.011.555.054 1.126-.277 1.639-.14.214-.048.388.226.447.079.016.203.097.205.15.006.27.134.457.307.652.09.101.098.303.09.457-.065 1.287-.144 2.572-.216 3.859-.014.265-.146.436-.335.627-.579.583-1.335.8-2.07 1.024-.407.125-.887.106-1.318.041-.799-.12-1.555-.388-2.096-1.046-.23-.28-.196-.422.09-.646.253-.2.501-.407.746-.618.338-.292.558-.288.791.023.294.39.588.524.933.421.373-.111.678-.496.689-.933.016-.682.004-1.365.004-2.048l-.039-.001c.04-.81.065-1.622.129-2.43.02-.263.163-.513.212-.776.063-.335.127-.678.117-1.015-.01-.287.08-.41.349-.42.414-.015.853-.159 1.215.153zm18.622 1.028c-.011 1.065-.301 1.368-1.424 1.462-.236.02-.475.008-.712 0-.46-.015-.513.03-.513.478v2.6h-.073c0 .9-.006 1.798.003 2.696.003.31-.119.51-.394.643-.407.197-.788.452-1.28.375-.25-.04-.433-.112-.467-.395-.123-1.017-.371-2.018-.212-3.062.063-.418-.032-.86-.036-1.29-.005-.473-.018-.948.027-1.417.048-.495-.101-.72-.601-.734-.3-.009-.602.01-.904.014-.465.007-.671-.227-.624-.688.032-.323.053-.648.072-.972.026-.45.078-.52.537-.543.874-.044 1.75-.058 2.624-.113.883-.055 1.766-.132 2.647-.224.821-.087 1.338.353 1.33 1.17zm8.46.205c-.04.28-.009.687-.175.808-.39.285-.858.505-1.382.478-.194-.01-.389-.018-.582-.043-.311-.04-.445.11-.448.403-.004.379 0 .758 0 1.137h-.07c0 1.375-.01 2.75.008 4.124.005.414-.163.654-.517.845-.405.219-.818.323-1.273.296-.214-.012-.354-.096-.376-.318-.087-.86-.185-1.72-.248-2.583-.024-.33.058-.667.053-1.001-.005-.398-.061-.796-.077-1.194-.014-.355-.03-.713.003-1.065.054-.574-.144-.806-.73-.777-.27.013-.539.053-.808.052-.358-.002-.544-.19-.529-.548.018-.432.07-.862.101-1.294.017-.243.148-.334.38-.34.627-.012 1.256-.013 1.88-.057 1.099-.079 2.195-.187 3.292-.282.086-.008.171-.02.258-.024.932-.04 1.371.448 1.24 1.383zm-19.054-.368c.297.143.55.213.835-.032.066-.057.317-.018.38.06.427.53.835 1.076 1.225 1.633.075.108.066.29.062.437-.043 1.375-.077 2.75-.157 4.121-.013.237-.192.495-.36.683-.213.239-.499.41-.745.621-.693.595-1.507.763-2.391.687-.021-.002-.05.003-.063-.009-.39-.327-.783-.199-1.197-.04-.132.05-.332.007-.47-.058-.4-.187-.804-.378-1.171-.621-.744-.492-.902-1.284-.975-2.097-.031-.343-.006-.692-.006-1.039l-.06-.005c.078-.925.131-1.854.241-2.775.096-.802.608-1.374 1.216-1.845.139-.107.404-.064.611-.066.264-.001.538.076.79.026.789-.158 1.527-.02 2.235.32zm-.906 1.946c-.192.264-.237.647-.304.988-.043.221-.013.457-.027.685-.009.16-.04.32-.054.48-.025.288-.038.578-.07.865-.03.278-.097.553-.11.83-.006.123.061.334.135.354.116.03.33-.026.389-.118.175-.274.291-.585.44-.876.044-.086.12-.154.182-.23.061.086.15.165.177.261.036.129.023.271.032.408l.112-.003c.006-.11.016-.22.019-.33.007-.302-.032-.613.025-.905.14-.713.11-1.418-.014-2.124-.022-.129-.106-.344-.177-.35-.258-.024-.655-.073-.755.065zm17.854-2.18c.555.16 1.174.074 1.384-.215-.512-.096-1.173.012-1.384.215zm-8.613-.049c.706.2 1.412.109 1.582-.206-.54-.033-1.03 0-1.582.206zm-5.806-51.02c.295.236.594.426 1.004.224.073-.036.301.085.35.185.256.525.634 1.055.67 1.604.05.717.295 1.357.43 2.035.117.582.15 1.172.452 1.707.158.281.112.549-.15.784-.32.285-.395.694-.428 1.094-.038.459-.272.736-.685.89-.071.026-.142.052-.212.08-.626.25-.735.43-.718 1.102.006.24.107.377.339.386.343.014.448.206.487.52.116.922-.093 1.81-.246 2.704-.065.384-.178.765-.186 1.15-.006.273.06.6.216.811.305.41.42.833.4 1.33-.033.834.592 1.753 1.354 2.076.544.23 1.116.403 1.567.824.12.112.335.126.51.171.31.08.629.136.935.231.287.09.56.226.843.327.239.085.428.192.453.483.025.278.195.366.472.35.58-.032 1.163-.038 1.744-.049.073-.001.153.021.217.055.051.026.113.086.116.134.003.041-.068.09-.11.13-.015.014-.047.008-.061.02-.135.122-.402.305-.379.358.095.212.253.418.439.56.147.114.273-.016.25-.195-.04-.32.146-.486.393-.601.733-.34 1.41-.753 1.934-1.386.101-.122.24-.233.385-.291.125-.05.33-.078.418-.01.347.27.685.562.983.885.267.29.344.65.284 1.06-.025.171.097.373.177.55.118.263.28.509.385.777.961 2.456 1.913 4.915 2.87 7.372.191.491.582.773 1.06.935.367.125.745.218 1.118.323.535.149.77.517.574 1.025-.173.448-.434.862-.647 1.296-.049.098-.059.215-.086.323.118.024.274.107.348.06.214-.134.45-.286.58-.492.955-1.511 2.343-2.357 4.059-2.715.21-.044.434-.09.641-.062.16.021.367.117.445.245.648 1.06.62 2.14-.015 3.189-.12.2-.394.307-.665.507.083.093.172.253.308.338.903.562 1.647 1.294 2.322 2.106.351.422.318.613-.173.875-.65.348-1.345.52-2.08.55-.115.005-.227.077-.34.118.054.107.086.237.166.319 2.804 2.857 1.591 7.79-2.208 8.968-2.29.71-4.613.017-6.055-1.892-.824-1.09-1.236-2.348-1.063-3.746.046-.367-.03-.459-.395-.441-.28.013-.56.06-.84.072-.514.02-.694-.204-.55-.693.564-1.937 1.546-3.655 2.744-5.263.13-.173.168-.428.203-.653.014-.086-.095-.265-.161-.271-.1-.01-.26.065-.31.153-.29.517-.59 1.034-.823 1.578-.87 2.037-2.13 3.755-3.983 5.005-1.213.819-2.59 1.217-3.983 1.585-1.75.463-3.532.598-5.33.623-2.382.032-4.746-.139-7.109-.446-1.577-.204-3.14-.454-4.68-.842-.523-.131-.708-.004-.855.513-.677 2.385-2.591 3.843-5.07 3.862-.878.007-1.755-.001-2.584-.348-1.28-.536-1.997-1.537-2.306-2.858-.081-.347-.142-.702-.173-1.057-.027-.305-.16-.454-.46-.463-.054-.001-.108-.01-.162-.012-1.567-.067-3.133-.137-4.7-.196-.885-.033-.97-.11-.786-.965.228-1.058.51-2.102 1.005-3.074.024-.048.045-.098.067-.148.208-.482.17-.539-.361-.605-.241-.03-.588.041-.582-.349.01-.581.074-1.01.557-1.059.343-.035.69-.06 1.034-.056.464.006.821-.149 1.127-.515 1.662-1.989 3.808-3.244 6.205-4.154 2.271-.863 4.624-1.236 7.029-1.378.636-.037 1.272-.074 1.907-.125.124-.01.244-.084.365-.129l-.014-.107c-.174-.018-.347-.05-.52-.05-2.824-.015-5.648-.027-8.472-.039-.119 0-.239.004-.356-.01-.264-.032-.436-.172-.387-.453.1-.562.205-1.124.343-1.677.077-.313.219-.61.343-.91.182-.441.467-.75.991-.743 1.297.02 2.598-.028 3.888.072 1.593.124 3.176.374 4.764.558.132.015.273-.055.41-.086-.061-.132-.091-.301-.192-.388-.122-.106-.298-.163-.46-.205-.398-.102-.53-.257-.429-.646.092-.355.118-.66-.148-.967-.094-.108-.049-.33-.086-.495-.057-.257-.087-.533-.207-.76-.162-.307-.214-.612-.15-.938.069-.34-.001-.628-.185-.923-.296-.478-.27-1.023-.166-1.544.105-.528.269-1.047.442-1.557.078-.228.254-.42.364-.64.093-.183.209-.38.217-.576.018-.462.098-.865.475-1.19.122-.106.173-.343.18-.523.01-.285.098-.51.334-.663.222-.143.272-.336.247-.585-.047-.467.073-.65.539-.775.281-.075.377-.222.374-.507-.006-.617.094-.759.658-.961.264-.095.403-.253.448-.533.075-.468.155-.524.636-.553.421-.026.55-.141.623-.556.05-.287.102-.574.156-.86.071-.386-.334-.898-.738-.96-.108-.017-.247-.082-.299-.17-.197-.33-.27-.351-.548-.084-.038.036-.078.07-.119.104-.005.004-.02-.001-.067-.005l-.046-.494c-.036-.404-.14-.472-.522-.357-.192.059-.388.103-.627.086.185-.258.373-.514.553-.776.11-.16.228-.32.301-.497.047-.115.019-.26.024-.392-.134 0-.276-.028-.4.005-.165.044-.31.16-.474.197-.092.022-.24-.025-.298-.094-.042-.05-.003-.206.046-.286l.863-1.37c.275-.453.18-.61-.36-.628-.044-.001-.093.012-.13-.003-.103-.043-.202-.098-.303-.147.06-.09.105-.202.186-.267.37-.299.751-.584 1.127-.875.034-.026.065-.057.096-.087.38-.377.373-.49-.07-.788.424-.469.986-.688 1.549-.9.367-.138.788-.134 1.088-.454.052-.056.224-.027.33.002.208.057.407.197.611.2.242.005.516-.048.722-.169.232-.135.403-.166.614.001zM57.943 48.265c1.052.239 2.112.455 3.18.607.658.094 1.061.472 1.262 1.015.216.58.28 1.217.408 1.813-.273.894-.247 1.872-1.016 2.536-.09.078-.179.158-.276.226-.482.333-.549.304-.786-.226-.09-.204-.236-.385-.367-.569-.217-.305-.194-.477.108-.704.622-.466.693-1.078.141-1.588-.164-.152-.435-.227-.668-.26-.833-.117-1.672-.197-2.508-.302-.157-.02-.307-.096-.464-.137-.287-.074-.573-.158-.865-.206-.265-.043-.539-.033-.806-.068-.099-.012-.223-.062-.278-.137-.194-.268-.461-.332-.766-.341-.543-.018-.578-.062-.52-.587.008-.076.006-.152.019-.227.103-.626.295-.772.91-.676.47.073.963.048 1.354.433.157.155.39.12.461-.174.014-.057.066-.144.109-.15.46-.062.848-.396 1.368-.278zm69.694-.623c.07.002.175.116.203.198.18.548.297 1.093.065 1.672-.085.214-.079.498-.024.73.338 1.434-.785 2.66-1.917 2.846-.73.12-1.486.178-2.222.13-.533-.035-1.058-.273-1.574-.456-.13-.047-.234-.217-.31-.353-.112-.196-.177-.418-.282-.619-.173-.335-.247-.647-.006-.998.154-.224.059-.384-.221-.432-.179-.03-.365-.026-.548-.022-.68.016-1.36.037-2.041.058-.22.007-.393-.062-.431-.298-.037-.226.094-.362.289-.453.103-.048.2-.112.38-.215-.313-.063-.609.038-.626-.305-.017-.339.266-.369.496-.456.201-.076.441-.127.583-.27.474-.479 1.09-.497 1.68-.55 1.462-.133 2.934-.175 4.39-.355.733-.09 1.41.134 2.116.148zm-4.687 3.005c-.06.099-.165.195-.17.297-.017.294.168.423.593.412-.045-.191-.056-.37-.132-.514-.047-.091-.19-.132-.29-.195zm.749-.56c-.054.135-.167.28-.147.402.024.145.156.275.25.406.279.39.665.39 1.021-.048l-.438-.093c-.227-.05-.38-.163-.44-.41-.025-.1-.161-.172-.246-.256zm.692-.24l-.022.094.677.705c.065-.304.05-.542-.186-.68-.134-.078-.312-.082-.47-.119zm.442-8.748c.88.016 1.74.115 2.385.804.744.795 1.362 2.832.265 3.992-.45.476-.98.722-1.625.758-.529.03-1.077.207-1.518-.282-.044-.049-.247-.01-.337.049-.805.528-2.258-.035-2.48-.97-.087-.368-.203-.731-.255-1.104-.117-.837.04-1.569.842-2.043.229-.135.438-.323.617-.522.369-.41.81-.632 1.362-.64.248-.005.496-.028.744-.042zm-67.357-.615c.322.023.646.04.965.088 1.29.197 2.581.4 3.87.613.372.061.737.163 1.104.249.264.061.373.226.343.498-.031.29-.004.595-.082.87-.082.29-.257.553-.394.827-.082.163-.222.318-.245.488-.05.385-.038.778-.065 1.167-.048.672-.44 1.184-1.11 1.31-.46.086-.949.094-1.415.047-.911-.093-1.815-.252-2.724-.376-.235-.031-.474-.033-.71-.054-.238-.022-.348-.15-.312-.394.074-.5.133-1.001.226-1.497.018-.1.146-.23.244-.252.25-.056.513-.05.768-.088.098-.014.212-.06.27-.13.027-.033-.054-.166-.1-.245-.039-.064-.117-.107-.143-.172-.023-.059-.017-.148.015-.2.021-.034.114-.042.17-.032.06.011.112.078.171.082.104.007.21-.015.315-.025-.048-.084-.085-.23-.148-.243-.593-.119-.78-.584-.957-1.07-.04-.109-.121-.202-.159-.262l-.555.278c-.023-.204-.071-.41-.063-.612.006-.157.076-.313.129-.465.096-.28.294-.422.592-.4zm2.722 4.314c.237.308.56.418.837.31.068-.025.114-.108.17-.165-.062-.048-.123-.134-.188-.138-.253-.016-.507-.007-.819-.007zm62.511-.818c-.013.35.382.917.747 1.073.375.16.788.057 1.217-.383-.183-.14-.343-.287-.525-.398-.31-.191-.635-.357-.951-.54-.234-.134-.478-.014-.488.248zm-62.72-.92c-.236.099-.457.232-.676.363-.042.026-.084.124-.067.157.028.053.106.081.19.139.235-.117.467-.221.686-.349.065-.038.093-.14.139-.213-.093-.035-.207-.124-.273-.096zm-2.44-2.101c-.075.114-.13.24-.192.364l.173.096.224-.37c-.07-.032-.198-.1-.204-.09zm3.433-7.342l.085.054c.04.104.083.207.117.312.036.113.03.255.098.34.368.47.107.78-.238 1.091-.201.18-.386.38-.564.583-.236.269-.275.651-.119.937.127.23.305.3.54.171.533-.294.78-.82 1.044-1.328.017-.032.01-.087-.005-.125-.081-.218-.165-.454.043-.628.226-.19.47-.43.738-.48.835-.159 1.602.08 2.205.677.473.467.624 1.11.53 1.742-.135.921-.485 1.771-1.184 2.432-.094.088-.192.18-.304.238-.35.183-.705.359-1.064.522-.078.035-.202.04-.275 0-.3-.16-.445-.833-.252-1.115.202-.294.408-.585.61-.878.032-.044.077-.093.079-.14.006-.157-.006-.314-.01-.47-.134.064-.303.097-.393.2-.2.226-.35.493-.535.732-.507.651-1.293.814-2.026.431-.153-.08-.324-.136-.458-.24-.114-.09-.193-.23-.276-.354-.052-.079-.058-.209-.125-.252-.538-.35-.51-.904-.498-1.427.018-.778.359-1.44.863-2.015.117-.133.279-.26.443-.31l.198-.053c.33-.089.64-.191.733-.647zm64.913-2.003c.095-.02.282.116.332.224.312.665.608 1.339.88 2.021.042.108-.03.312-.118.41-.142.16-.187.296-.107.495.276.681.52 1.376.82 2.046.123.274.336.518.546.739.223.234.253.396-.03.515-.365.155-.758.245-1.142.35-.055.014-.147-.036-.196-.084-.217-.21-.457-.406-.625-.651-.154-.223-.27-.494-.323-.759-.126-.622-.303-.709-.888-.445-.54.244-1.103.438-1.656.654-.914.355-1.847.672-2.739 1.078-.7.32-1.145.074-1.599-.585-.119-.173-.165-.396-.264-.645.081-.098.145-.234.252-.296.896-.516 1.743-1.126 2.788-1.344.34-.071.655-.268.983-.404.445-.185.881-.4 1.34-.54.528-.161.724-.479.52-.989-.113-.28-.236-.557-.359-.833-.127-.287-.04-.506.242-.599.44-.145.89-.268 1.343-.358zm1.467 2.812c.101.207.204.413.303.621.306.645.617 1.286.908 1.937.046.103-.001.247-.005.372-.1-.067-.248-.111-.294-.205-.36-.737-.71-1.48-1.041-2.231-.058-.132-.008-.312-.008-.47l.137-.024zm-66.267-5.29c.233.17.496.3.753.431.212.108.358.027.48-.178.296-.499.384-.516.894-.25.077.04.153.08.229.122.6.334.642.433.357 1.041-.133.284-.075.458.194.61.479.272.95.558 1.415.852.27.17.522.178.782-.007.176-.124.353-.249.533-.368.328-.216.725-.193.985.052.243.23.297.59.069.921-.274.399-.583.775-.903 1.138-.215.245-.498.382-.803.303-.55.01-1.015-.133-1.462-.377-.559-.305-1.136-.578-1.699-.876-.278-.148-.493-.104-.671.153-.068.097-.14.193-.213.286-.283.36-.416.37-.806.11-.104-.07-.26-.112-.382-.094-.308.046-.417-.048-.311-.352.091-.264.204-.525.34-.769.142-.255.08-.415-.152-.564-.308-.198-.604-.417-.91-.62-.236-.158-.32-.34-.14-.596.213-.299.402-.617.635-.899.292-.353.419-.336.786-.068zm.175 3.029c-.05.13.273.39.483.39.067 0 .135-.052.202-.08l.031-.127c-.167-.106-.33-.225-.508-.308-.044-.02-.183.062-.208.125zm56.179-9.156c2.216.577 2.855 2.781 1.503 4.517-.237.304-.54.56-.832.816-.362.316-.54.294-.874-.074-.443-.488-.876-.986-1.327-1.467-.115-.124-.279-.201-.42-.3l-.133.075c.017.135-.01.304.06.4.239.33.48.672.78.94.397.354.578.8.701 1.285.06.24-.113.294-.302.314l-.704.075c-.435.046-.767-.182-1.083-.43-.06-.047-.074-.173-.078-.265-.025-.475-.31-.682-.773-.619-.137.02-.39-.101-.43-.215-.172-.484-.29-.988-.411-1.488-.012-.05.073-.166.134-.186.377-.126.45-.463.432-.759-.045-.746.336-1.275.787-1.784.81-.914 1.9-1.113 2.97-.835zm-2.653 3.295c-.276.199-.063.894.464 1.218l-.464-1.218zm-42.726-7.87c.07.053.187.082.274.068.341-.054.535.12.724.375.595.798 1.217 1.575 1.813 2.372.27.363.51.748.747 1.135.048.077.036.208.016.307-.101.508-.207 1.015-.327 1.518-.034.144-.096.298-.192.406-.315.354-.6.777-.995 1.008-.465.272-.853.612-1.272.935-.642.496-2.202.663-3.075-.16-.878-.826-1.541-1.805-2.225-2.777-.137-.194-.294-.375-.422-.575-.391-.61-.425-1.282-.3-1.97.057-.321.255-.529.563-.66.182-.076.333-.227.492-.352.407-.32.77-.721 1.222-.949 1.327-.668 2.54-.37 3.563.816.324.375.614.78.918 1.174.117.15.229.304.343.456l.131-.1c-.027-.106-.025-.233-.086-.314-.626-.828-1.246-1.669-2.109-2.27-.236-.165-.554-.217-.838-.308-.122-.04-.263-.027-.38-.074-.109-.043-.197-.136-.294-.206.105-.054.207-.15.315-.155.487-.024.974-.023 1.394.3zm45.762 6.63c-.03 0-.087.097-.087.149.003.318.019.637.033 1.04.326-.274.423-.89.246-1.105-.04-.05-.126-.083-.192-.083zm-.564.247c-.064.084-.185.17-.181.251.008.176.08.35.125.524l.171-.004.064-.266c.02-.089.035-.177.033-.265-.001-.082-.137-.16-.212-.24zm-5.387-10.226c.295.178.575.383.848.594.195.15.186.36.071.557-.278.474-.552.953-.858 1.41-.167.25-.187.406.097.574.361.216.685.498 1.055.695.64.34.752.922.664 1.522-.124.836-.299 1.66-.898 2.346-.408.467-.67 1.059-1.043 1.56-.22.296-.536.52-.795.788-.068.07-.093.186-.129.285-.037.103-.032.246-.102.304-.054.045-.205.01-.294-.03-.438-.198-.749-.489-.784-1.015-.016-.23.015-.402.208-.534.459-.313.695-.787.913-1.273.017-.039.042-.091.03-.124-.227-.59.212-.974.435-1.424.062-.126.155-.24.193-.372.022-.077-.008-.21-.064-.256-.055-.046-.178-.03-.264-.01-.068.017-.124.084-.19.122-.425.25-.85.503-1.28.747-.633.359-1.106.856-1.355 1.549-.134.373-.196.41-.566.277-.223-.08-.442-.174-.665-.255-.27-.098-.397-.285-.417-.587.07-.201.103-.424.213-.6.825-1.318 1.661-2.63 2.505-3.937.24-.372.516-.721.776-1.08.038-.052.075-.122.128-.144.536-.219.76-.753 1.137-1.13.075-.076.107-.226.105-.341-.002-.26.102-.353.326-.218zm-40.985 8.869c-.069.443.038.607.405.624.018-.293-.064-.42-.405-.624zm-.399-3.512c-.306.187-.374.43-.2.74.597 1.06 1.43 1.966 1.974 3.06.023.046.064.086.101.125.178.184.34.174.474-.045.164-.272.213-.563.093-.87-.094-.24-.194-.48-.28-.724-.026-.074-.011-.163-.015-.246l.08-.024.643.844.092-.068c-.03-.074-.05-.156-.094-.22-.596-.847-1.12-1.748-1.888-2.462-.457-.425-.449-.433-.98-.11zm44.914 3.114c-.224.084-.443.176-.532.428l.062.081.536-.402-.066-.107zm-35.739-7.73c-.028.197-.068.438.015.598.316.611.312 1.274.374 1.926.105 1.108.19 2.218.306 3.325.045.429-.102.708-.488.881-.226.101-.44.23-.667.325-.324.137-.644.058-.87-.178-1.096-1.146-2.326-2.17-3.223-3.5-.198-.293-.484-.546-.324-.985.068-.188-.112-.337-.332-.343-.183-.005-.37.026-.549.002-.088-.011-.202-.095-.235-.175-.024-.056.045-.2.11-.238.513-.297 1.033-.581 1.556-.86.08-.042.188-.054.282-.05.229.012.326.17.183.347-.25.309-.13.484.139.681.244.181.457.405.717.64.066-.416-.524-.515-.312-.974.647.395.97 1.086 1.505 1.575.234-.134.217-.332.177-.52-.13-.612-.263-1.225-.412-1.833-.074-.297 0-.465.305-.56.443-.137.874-.312 1.313-.463.352-.121.483.01.43.379zm-2.358 4.854c-.028.118-.044.147-.036.157.477.58.938 1.174 1.443 1.729.178.195.43.073.6-.105.05-.053.089-.166.066-.227-.02-.054-.131-.077-.205-.108-.199-.086-.425-.134-.593-.26-.257-.193-.472-.441-.708-.663-.175-.166-.355-.328-.567-.523zm-7.452.43c-.026.063-.091.144-.072.187.081.19.188.368.286.55l.146-.06c-.047-.19-.082-.385-.15-.566-.022-.056-.137-.076-.21-.112zm32.274-8.843c1.056.31 2.111.625 3.17.923.694.196 1.396.363 2.09.555.157.044.406.008.379.279-.003.022-.327.074-.453.012-.72-.349-1.555-.167-2.271-.515-.063-.03-.157.003-.236.007l-.02.084c.277.094.555.19.832.283.379.127.752.276 1.138.371.34.085.692.139 1.041.15.381.014.495.139.36.5-.018.051-.04.1-.066.148-.206.395-.255.933-.887.926-.451-.005-.911.077-1.316-.217-.094-.068-.21-.117-.323-.148-.3-.083-.465.025-.565.321-.565 1.667-1.136 3.333-1.704 5-.092.27-.276.42-.556.481-.467.104-.928.125-1.343-.143-.104-.067-.21-.266-.186-.378.222-1.076.36-2.17.862-3.18.215-.434.23-.963.369-1.439.093-.32.243-.623.364-.935.17-.442.04-.735-.404-.893-.315-.111-.64-.196-.952-.317-.324-.125-.376-.266-.241-.582.153-.358.312-.714.476-1.067.086-.184.22-.29.442-.226zm-16.02 1.17c.302.054.597.243.852.43.742.542 1.104 1.303 1.173 2.211.003.044.008.087.015.13.126.725.023.842-.697.94-.65.089-1.296.216-1.94.343-.094.019-.168.133-.251.203.08.077.148.173.241.228.29.169.584.183.894.02.617-.323 1.246-.29 1.88-.039.205.08.203.184.109.347-.149.26-.29.522-.427.787-.206.4-.774.622-1.18.455-.33-.136-.58-.032-.811.264-.108.139-.295.292-.453.301-.566.031-1.124-.039-1.616-.463.221-.256.095-.46-.09-.633-.187-.176-.398-.33-.601-.49-.453-.355-.5-.678-.425-1.242.065-.48.054-1.01-.088-1.465-.163-.526.021-.9.308-1.244.812-.975 1.881-1.306 3.108-1.084zm5.84-.967c.202-.003.26.087.224.285-.094.524.078.734.62.683.686-.066 1.351-.082 1.997.222.393.185.471.328.182.643-.298.325-.634.621-.988.882-.11.08-.34.028-.504-.01-.119-.028-.214-.146-.33-.2-.266-.124-.487-.053-.553.233-.102.44-.179.89-.205 1.34-.057.948-.078 1.899-.107 2.848-.008.25-.101.377-.371.371-.397-.008-.782-.038-1.087-.33-.156-.148-.267-.1-.361.062-.075.127-.145.257-.218.386l-.094.007c-.032-.13-.092-.259-.093-.389-.01-.91-.013-1.82-.012-2.729.002-.766.015-1.533.018-2.299 0-.296.097-.512.39-.643.361-.162.395-.29.23-.633-.195-.406-.044-.68.418-.72.28-.024.562-.005.843-.01zm-14.877 5.847l-.127.122c.047.299.104.348.381.334l.094-.094-.348-.362zm7.547-.294c.259.472.515.557.884.287l-.884-.287zm.786-2.733l-.22.302c.162.118.322.242.493.346.02.011.16-.133.156-.138-.121-.157-.253-.307-.43-.51zm-.349-.426l1.182.79c.058-.368-.183-.492-.363-.634-.223-.175-.463-.358-.819-.156z"/>
</svg>
